<mxfile host="app.diagrams.net" agent="Mozilla/5.0 (Macintosh; Intel Mac OS X 10_15_7) AppleWebKit/537.36 (KHTML, like Gecko) Chrome/133.0.0.0 Safari/537.36" version="26.0.12">
  <diagram name="Page-1" id="QNsVGa1wYBQHBQBTk7sG">
    <mxGraphModel dx="2339" dy="1046" grid="1" gridSize="10" guides="1" tooltips="1" connect="1" arrows="1" fold="1" page="1" pageScale="1" pageWidth="850" pageHeight="1100" math="0" shadow="0">
      <root>
        <mxCell id="0" />
        <mxCell id="1" parent="0" />
        <mxCell id="05Kwq9dNz_yLMhuHENz9-3" value="" style="edgeStyle=orthogonalEdgeStyle;rounded=0;orthogonalLoop=1;jettySize=auto;html=1;fontSize=18;strokeWidth=3;fontStyle=1" parent="1" source="LM1e-CMtDsA7EXIrb8e0-1" target="LM1e-CMtDsA7EXIrb8e0-2" edge="1">
          <mxGeometry relative="1" as="geometry" />
        </mxCell>
        <mxCell id="LM1e-CMtDsA7EXIrb8e0-1" value="Data Collection" style="fillColor=none;strokeColor=default;fontSize=18;strokeWidth=3;fontStyle=1" parent="1" vertex="1">
          <mxGeometry x="-355" y="215" width="170" height="54" as="geometry" />
        </mxCell>
        <mxCell id="05Kwq9dNz_yLMhuHENz9-4" value="" style="edgeStyle=orthogonalEdgeStyle;rounded=0;orthogonalLoop=1;jettySize=auto;html=1;fontSize=18;strokeWidth=3;fontStyle=1" parent="1" source="LM1e-CMtDsA7EXIrb8e0-2" target="LM1e-CMtDsA7EXIrb8e0-3" edge="1">
          <mxGeometry relative="1" as="geometry" />
        </mxCell>
        <mxCell id="05Kwq9dNz_yLMhuHENz9-22" style="edgeStyle=orthogonalEdgeStyle;rounded=0;orthogonalLoop=1;jettySize=auto;html=1;entryX=0;entryY=0.25;entryDx=0;entryDy=0;exitX=1;exitY=0.75;exitDx=0;exitDy=0;fontSize=14;strokeWidth=3;" parent="1" source="LM1e-CMtDsA7EXIrb8e0-2" target="LM1e-CMtDsA7EXIrb8e0-9" edge="1">
          <mxGeometry relative="1" as="geometry">
            <Array as="points">
              <mxPoint x="-100" y="347" />
              <mxPoint x="-100" y="383" />
            </Array>
          </mxGeometry>
        </mxCell>
        <mxCell id="LM1e-CMtDsA7EXIrb8e0-2" value="Image Upload to Cloud" style="fillColor=none;strokeColor=default;fontSize=18;strokeWidth=3;fontStyle=1" parent="1" vertex="1">
          <mxGeometry x="-381.5" y="306" width="223" height="54" as="geometry" />
        </mxCell>
        <mxCell id="05Kwq9dNz_yLMhuHENz9-5" value="" style="edgeStyle=orthogonalEdgeStyle;rounded=0;orthogonalLoop=1;jettySize=auto;html=1;fontSize=18;strokeWidth=3;fontStyle=1" parent="1" source="LM1e-CMtDsA7EXIrb8e0-3" target="LM1e-CMtDsA7EXIrb8e0-4" edge="1">
          <mxGeometry relative="1" as="geometry" />
        </mxCell>
        <mxCell id="LM1e-CMtDsA7EXIrb8e0-3" value="Data Processing and &#xa;Analysis" style="fillColor=none;strokeColor=default;fontSize=18;strokeWidth=3;fontStyle=1" parent="1" vertex="1">
          <mxGeometry x="-400" y="427.5" width="260" height="57.5" as="geometry" />
        </mxCell>
        <mxCell id="05Kwq9dNz_yLMhuHENz9-6" value="" style="edgeStyle=orthogonalEdgeStyle;rounded=0;orthogonalLoop=1;jettySize=auto;html=1;fontSize=18;strokeWidth=3;fontStyle=1" parent="1" source="LM1e-CMtDsA7EXIrb8e0-4" target="LM1e-CMtDsA7EXIrb8e0-5" edge="1">
          <mxGeometry relative="1" as="geometry" />
        </mxCell>
        <mxCell id="LM1e-CMtDsA7EXIrb8e0-4" value="Doctor Feedback" style="fillColor=none;strokeColor=default;fontSize=18;strokeWidth=3;fontStyle=1" parent="1" vertex="1">
          <mxGeometry x="-360" y="534" width="180" height="54" as="geometry" />
        </mxCell>
        <mxCell id="05Kwq9dNz_yLMhuHENz9-7" value="" style="edgeStyle=orthogonalEdgeStyle;rounded=0;orthogonalLoop=1;jettySize=auto;html=1;fontSize=18;strokeWidth=3;fontStyle=1" parent="1" source="LM1e-CMtDsA7EXIrb8e0-5" target="LM1e-CMtDsA7EXIrb8e0-6" edge="1">
          <mxGeometry relative="1" as="geometry" />
        </mxCell>
        <mxCell id="LM1e-CMtDsA7EXIrb8e0-5" value="Patient Access" style="fillColor=none;strokeColor=default;fontSize=18;strokeWidth=3;fontStyle=1" parent="1" vertex="1">
          <mxGeometry x="-351" y="624" width="162" height="54" as="geometry" />
        </mxCell>
        <mxCell id="LM1e-CMtDsA7EXIrb8e0-6" value="Cloud Data Synchronization" style="fillColor=none;strokeColor=default;fontSize=18;strokeWidth=3;fontStyle=1" parent="1" vertex="1">
          <mxGeometry x="-398" y="728" width="256" height="54" as="geometry" />
        </mxCell>
        <mxCell id="05Kwq9dNz_yLMhuHENz9-2" value="" style="edgeStyle=orthogonalEdgeStyle;rounded=0;orthogonalLoop=1;jettySize=auto;html=1;fontSize=18;strokeWidth=3;fontStyle=1" parent="1" source="LM1e-CMtDsA7EXIrb8e0-7" target="LM1e-CMtDsA7EXIrb8e0-1" edge="1">
          <mxGeometry relative="1" as="geometry" />
        </mxCell>
        <mxCell id="LM1e-CMtDsA7EXIrb8e0-7" value="IR and RGB Image Capture" style="fillColor=none;strokeColor=default;fontSize=18;strokeWidth=3;fontStyle=1" parent="1" vertex="1">
          <mxGeometry x="-394" y="122" width="248" height="54" as="geometry" />
        </mxCell>
        <mxCell id="05Kwq9dNz_yLMhuHENz9-12" style="edgeStyle=orthogonalEdgeStyle;rounded=0;orthogonalLoop=1;jettySize=auto;html=1;entryX=1;entryY=0.25;entryDx=0;entryDy=0;exitX=0.5;exitY=1;exitDx=0;exitDy=0;fontSize=18;strokeWidth=3;fontStyle=1" parent="1" source="LM1e-CMtDsA7EXIrb8e0-8" target="LM1e-CMtDsA7EXIrb8e0-2" edge="1">
          <mxGeometry relative="1" as="geometry" />
        </mxCell>
        <mxCell id="LM1e-CMtDsA7EXIrb8e0-8" value="Patient Uploads Images" style="fillColor=none;strokeColor=default;fontSize=18;strokeWidth=3;fontStyle=1" parent="1" vertex="1">
          <mxGeometry x="-59" y="230" width="220" height="36" as="geometry" />
        </mxCell>
        <mxCell id="LM1e-CMtDsA7EXIrb8e0-9" value="Doctor Reviews and &#xa;Analyzes Images" style="fillColor=none;strokeColor=default;fontSize=18;strokeWidth=3;fontStyle=1" parent="1" vertex="1">
          <mxGeometry x="-59" y="367.5" width="220" height="60" as="geometry" />
        </mxCell>
        <mxCell id="05Kwq9dNz_yLMhuHENz9-9" style="edgeStyle=orthogonalEdgeStyle;rounded=0;orthogonalLoop=1;jettySize=auto;html=1;entryX=1;entryY=0.25;entryDx=0;entryDy=0;fontSize=18;strokeWidth=3;fontStyle=1;exitX=0.001;exitY=0.417;exitDx=0;exitDy=0;exitPerimeter=0;" parent="1" source="LM1e-CMtDsA7EXIrb8e0-10" edge="1">
          <mxGeometry relative="1" as="geometry">
            <mxPoint x="-54" y="528" as="sourcePoint" />
            <mxPoint x="-180" y="562.5" as="targetPoint" />
            <Array as="points">
              <mxPoint x="-117" y="519" />
              <mxPoint x="-117" y="563" />
            </Array>
          </mxGeometry>
        </mxCell>
        <mxCell id="LM1e-CMtDsA7EXIrb8e0-10" value="Doctor Sends &#xa;Comments / Feedback" style="fillColor=none;strokeColor=default;fontSize=18;strokeWidth=3;fontStyle=1" parent="1" vertex="1">
          <mxGeometry x="-54" y="498" width="210" height="50" as="geometry" />
        </mxCell>
        <mxCell id="05Kwq9dNz_yLMhuHENz9-10" style="edgeStyle=orthogonalEdgeStyle;rounded=0;orthogonalLoop=1;jettySize=auto;html=1;entryX=1;entryY=0.5;entryDx=0;entryDy=0;fontSize=18;strokeWidth=3;fontStyle=1;exitX=0;exitY=0.5;exitDx=0;exitDy=0;" parent="1" source="LM1e-CMtDsA7EXIrb8e0-11" edge="1" target="LM1e-CMtDsA7EXIrb8e0-5">
          <mxGeometry relative="1" as="geometry">
            <mxPoint x="-54" y="668" as="sourcePoint" />
            <mxPoint x="-189" y="690.5" as="targetPoint" />
            <Array as="points">
              <mxPoint x="-121" y="613" />
              <mxPoint x="-121" y="651" />
            </Array>
          </mxGeometry>
        </mxCell>
        <mxCell id="LM1e-CMtDsA7EXIrb8e0-11" value="Patient Views &#xa;Images and Feedback" style="fillColor=none;strokeColor=default;fontSize=18;strokeWidth=3;fontStyle=1" parent="1" vertex="1">
          <mxGeometry x="-54" y="588" width="210" height="50" as="geometry" />
        </mxCell>
        <mxCell id="05Kwq9dNz_yLMhuHENz9-11" style="edgeStyle=orthogonalEdgeStyle;rounded=0;orthogonalLoop=1;jettySize=auto;html=1;entryX=1;entryY=0.25;entryDx=0;entryDy=0;fontSize=18;strokeWidth=3;fontStyle=1" parent="1" source="LM1e-CMtDsA7EXIrb8e0-12" target="LM1e-CMtDsA7EXIrb8e0-6" edge="1">
          <mxGeometry relative="1" as="geometry">
            <Array as="points">
              <mxPoint x="-90" y="708" />
              <mxPoint x="-90" y="742" />
            </Array>
          </mxGeometry>
        </mxCell>
        <mxCell id="LM1e-CMtDsA7EXIrb8e0-12" value="Data Sync for &#xa;Doctor and Patient" style="fillColor=none;strokeColor=default;fontSize=18;strokeWidth=3;fontStyle=1" parent="1" vertex="1">
          <mxGeometry x="-49" y="678" width="204" height="50" as="geometry" />
        </mxCell>
        <mxCell id="05Kwq9dNz_yLMhuHENz9-17" style="edgeStyle=orthogonalEdgeStyle;rounded=0;orthogonalLoop=1;jettySize=auto;html=1;entryX=0;entryY=0.5;entryDx=0;entryDy=0;exitX=0.75;exitY=0;exitDx=0;exitDy=0;strokeWidth=3;fontSize=18;fontStyle=1" parent="1" source="LM1e-CMtDsA7EXIrb8e0-52" target="LM1e-CMtDsA7EXIrb8e0-2" edge="1">
          <mxGeometry relative="1" as="geometry" />
        </mxCell>
        <mxCell id="05Kwq9dNz_yLMhuHENz9-18" style="edgeStyle=orthogonalEdgeStyle;rounded=0;orthogonalLoop=1;jettySize=auto;html=1;strokeWidth=3;fontSize=18;fontStyle=1" parent="1" source="LM1e-CMtDsA7EXIrb8e0-52" target="LM1e-CMtDsA7EXIrb8e0-3" edge="1">
          <mxGeometry relative="1" as="geometry" />
        </mxCell>
        <mxCell id="05Kwq9dNz_yLMhuHENz9-19" style="edgeStyle=orthogonalEdgeStyle;rounded=0;orthogonalLoop=1;jettySize=auto;html=1;entryX=0;entryY=0.5;entryDx=0;entryDy=0;exitX=0.75;exitY=1;exitDx=0;exitDy=0;strokeWidth=3;fontSize=18;fontStyle=1" parent="1" source="LM1e-CMtDsA7EXIrb8e0-52" target="LM1e-CMtDsA7EXIrb8e0-4" edge="1">
          <mxGeometry relative="1" as="geometry" />
        </mxCell>
        <mxCell id="05Kwq9dNz_yLMhuHENz9-20" style="edgeStyle=orthogonalEdgeStyle;rounded=0;orthogonalLoop=1;jettySize=auto;html=1;entryX=0;entryY=0.5;entryDx=0;entryDy=0;exitX=0.5;exitY=1;exitDx=0;exitDy=0;strokeWidth=3;fontSize=18;fontStyle=1" parent="1" source="LM1e-CMtDsA7EXIrb8e0-52" target="LM1e-CMtDsA7EXIrb8e0-5" edge="1">
          <mxGeometry relative="1" as="geometry" />
        </mxCell>
        <mxCell id="05Kwq9dNz_yLMhuHENz9-21" style="edgeStyle=orthogonalEdgeStyle;rounded=0;orthogonalLoop=1;jettySize=auto;html=1;entryX=0;entryY=0.5;entryDx=0;entryDy=0;exitX=0.25;exitY=1;exitDx=0;exitDy=0;strokeWidth=3;fontSize=18;fontStyle=1" parent="1" source="LM1e-CMtDsA7EXIrb8e0-52" target="LM1e-CMtDsA7EXIrb8e0-6" edge="1">
          <mxGeometry relative="1" as="geometry" />
        </mxCell>
        <mxCell id="LM1e-CMtDsA7EXIrb8e0-52" value="Cloud System of Solesense&amp;nbsp;" style="rounded=0;whiteSpace=wrap;html=1;fontSize=18;strokeWidth=3;fontStyle=1" parent="1" vertex="1">
          <mxGeometry x="-630" y="423.75" width="170" height="65" as="geometry" />
        </mxCell>
        <mxCell id="LM1e-CMtDsA7EXIrb8e0-63" value="" style="edgeStyle=orthogonalEdgeStyle;rounded=0;orthogonalLoop=1;jettySize=auto;html=1;shape=flexArrow;entryX=0;entryY=0.5;entryDx=0;entryDy=0;exitX=1;exitY=0.5;exitDx=0;exitDy=0;fontSize=18;strokeWidth=3;fontStyle=1" parent="1" source="LM1e-CMtDsA7EXIrb8e0-62" target="LM1e-CMtDsA7EXIrb8e0-52" edge="1">
          <mxGeometry relative="1" as="geometry" />
        </mxCell>
        <mxCell id="LM1e-CMtDsA7EXIrb8e0-62" value="Authorized Developers&amp;nbsp;" style="rounded=0;whiteSpace=wrap;html=1;fontSize=18;strokeWidth=3;fontStyle=1" parent="1" vertex="1">
          <mxGeometry x="-810" y="427.5" width="120" height="60" as="geometry" />
        </mxCell>
        <mxCell id="05Kwq9dNz_yLMhuHENz9-8" style="edgeStyle=orthogonalEdgeStyle;rounded=0;orthogonalLoop=1;jettySize=auto;html=1;entryX=1;entryY=0.75;entryDx=0;entryDy=0;exitX=0;exitY=0.75;exitDx=0;exitDy=0;fontSize=18;strokeWidth=3;fontStyle=1" parent="1" source="LM1e-CMtDsA7EXIrb8e0-9" target="LM1e-CMtDsA7EXIrb8e0-3" edge="1">
          <mxGeometry relative="1" as="geometry" />
        </mxCell>
      </root>
    </mxGraphModel>
  </diagram>
</mxfile>
